<svg width="38" height="38" viewBox="0 0 38 38" fill="none" xmlns="http://www.w3.org/2000/svg">
<g clip-path="url(#clip0_738_200)">
<path d="M36.9587 15.6874C36.9976 15.8578 36.9058 16.0608 36.8594 16.2451C36.7841 16.546 36.7005 16.8452 36.6111 17.142C36.4687 17.6141 36.1699 17.959 35.6939 18.1139C35.3397 18.2296 35.2892 18.4319 35.4249 18.7335C35.5143 18.9308 35.5946 19.1322 35.6881 19.3279C35.9555 19.8913 35.8421 20.4001 35.4837 20.8877C35.064 21.4584 34.651 22.0341 34.2495 22.617C33.8655 23.1731 33.6883 23.7854 33.7761 24.4646C33.8671 25.1764 33.7098 25.8336 33.3158 26.4426C32.5345 27.651 31.8027 28.8944 30.9684 30.066C30.5802 30.6107 30.0173 31.0428 29.4975 31.4839C29.2549 31.6894 28.9379 31.8305 28.6325 31.9348C28.1607 32.0971 27.7162 31.9047 27.5606 31.4489C27.1368 30.2079 26.7196 28.9637 26.3678 27.7015C26.2875 27.4154 26.4282 27.0289 26.5656 26.7329C26.9381 25.9306 26.8909 25.1895 26.4837 24.4026C26.2138 23.8825 26.0963 23.2864 25.8993 22.7271C25.838 22.5534 25.7569 22.3814 25.6584 22.2248C25.4771 21.9378 25.2503 21.6769 25.0906 21.3793C24.8903 21.0067 24.6237 20.9317 24.2388 21.0638C23.5526 21.2986 22.8673 21.5408 22.167 21.7242C21.9063 21.7927 21.5694 21.7837 21.326 21.6786C19.8154 21.0263 18.7236 19.9745 18.289 18.3642C18.222 18.1155 18.2733 17.8309 18.2948 17.5651C18.3462 16.9308 18.3743 16.2916 18.4836 15.6662C18.6243 14.8549 19.0415 14.1668 19.6738 13.627C20.2185 13.1639 20.7251 12.6771 21.0777 12.0485C21.1621 11.8977 21.302 11.7762 21.4336 11.6221C20.5488 11.1198 20.2408 10.5499 20.394 9.73535C20.5993 8.64034 21.225 7.98154 22.1985 7.83885C22.3615 7.81439 22.532 7.76221 22.6893 7.78667C23.4028 7.89919 23.9475 7.61626 24.3887 7.10178C24.4698 7.00638 24.5335 6.79358 24.4814 6.70471C23.9326 5.76135 24.4648 5.11804 25.3952 4.77804C25.862 4.60763 26.3032 4.34917 26.7212 4.07847C27.2402 3.74336 27.6806 3.60883 28.2964 3.96758C32.9061 6.64845 35.8057 10.5401 36.9587 15.6874ZM32.0403 12.8818C32.109 12.4513 31.8425 12.236 31.4849 12.1635C30.9377 12.0526 30.3798 11.9767 29.8219 11.9368C29.3799 11.905 28.971 11.8593 28.6937 11.3987C28.3535 11.7892 27.9968 12.0306 27.4157 11.8447C27.5895 12.1928 27.6839 12.5026 27.8768 12.7334C28.0365 12.925 28.3088 13.1378 28.5348 13.1419C29.3592 13.1549 30.1787 13.1476 30.9783 13.3897C31.0669 13.4166 31.1695 13.3995 31.2655 13.3979C31.7133 13.3897 31.989 13.203 32.0403 12.8818ZM27.3263 11.6628C27.347 11.4712 27.3644 11.3 27.3826 11.1272C26.6848 10.7342 26.0152 10.3387 25.3257 9.9824C25.1676 9.90005 24.8596 9.86825 24.7529 9.9612C24.3233 10.3338 23.9458 10.7635 23.5485 11.1728C23.5766 11.2038 23.6048 11.2356 23.6329 11.2666C24.9052 11.0383 26.2122 10.4847 27.3263 11.6628Z" fill="#F6F6F2"/>
<path d="M21.3045 1.81428C21.7813 1.85097 21.9915 2.19668 21.6637 2.54238C20.8244 3.42867 20.0033 4.3761 18.6483 4.50982C18.3064 4.54325 17.9654 4.58646 17.6227 4.61581C16.795 4.68593 16.1212 5.09524 15.4573 5.54286C15.0857 5.79318 14.6991 6.03941 14.2861 6.209C13.7952 6.40958 13.4468 6.15682 13.513 5.635C13.5726 5.15884 13.7547 4.69816 13.8863 4.23097C13.9219 4.10214 13.9699 3.97658 14.0369 3.77682C13.0014 3.68876 12.0835 3.94641 11.1589 4.39485C11.3724 4.4984 11.5885 4.59788 11.7995 4.7055C12.1919 4.90445 12.2217 5.24445 11.86 5.49965C11.6936 5.61788 11.4958 5.69207 11.3261 5.80541C10.8998 6.08833 10.8187 6.36473 10.9834 6.84416C11.1241 7.25346 11.269 7.66277 11.3782 8.08023C11.5098 8.57922 11.2905 8.98689 10.774 9.29265C10.3692 9.53317 10.0522 9.38071 9.7393 9.0986C9.36599 8.76267 9.2021 8.83116 9.10608 9.33586C9.07297 9.50871 9.0829 9.7044 8.9993 9.84871C8.89252 10.0322 8.7336 10.28 8.55894 10.3151C7.76266 10.4741 7.18903 10.9723 6.58064 11.4378C6.12042 11.7901 5.8034 12.2189 5.59977 12.753C5.34069 13.4314 4.91358 13.9825 4.25304 14.3429C4.01382 14.4734 3.80854 14.6674 3.56684 14.793C2.77221 15.2064 2.58514 15.8823 2.81939 16.652C3.01805 17.3026 3.33176 17.9223 3.63223 18.5371C3.76715 18.8135 4.01548 18.9358 4.35899 18.7906C5.17183 18.4482 5.88617 18.7246 6.47966 19.2611C7.14268 19.8604 7.83633 20.3985 8.61689 20.842C9.11188 21.1233 9.48932 21.5147 9.64908 22.105C9.70371 22.3064 9.98762 22.4939 10.2103 22.595C11.0579 22.9799 11.9254 23.3207 12.7812 23.6892C13.2522 23.8923 13.6802 24.1776 13.6843 24.7419C13.686 25.0647 13.6239 25.4333 13.46 25.704C13.061 26.3587 12.84 27.024 12.9973 27.7888C13.0246 27.9193 13.0014 28.0595 13.008 28.1949C13.0329 28.6743 12.816 28.9914 12.3649 29.1733C11.4983 29.5222 11.0132 30.106 11.1051 31.0893C11.1307 31.3698 11.0496 31.6919 10.923 31.9487C10.5828 32.6369 10.6068 33.2997 10.9139 33.983C10.966 34.0988 10.9288 34.2537 10.9337 34.3907C10.8112 34.3556 10.6746 34.3442 10.5679 34.2831C9.20044 33.5003 7.97125 32.5415 6.86704 31.4285C6.55581 31.1146 6.25369 30.8341 6.25286 30.3017C6.25203 29.7603 6.04179 29.2206 5.93418 28.6784C5.89693 28.4933 5.88369 28.3025 5.87044 28.1133C5.82657 27.4937 5.54266 27.0028 5.1321 26.5307C4.38796 25.6754 3.68604 24.7606 3.46172 23.6273C3.30279 22.8217 3.26141 21.9884 3.23575 21.1649C3.2225 20.7687 3.16042 20.4221 2.94024 20.0952C2.77304 19.8473 2.63646 19.5774 2.45932 19.3369C2.36662 19.2114 2.20686 19.1372 2.09264 19.0238C1.99248 18.9244 1.9155 18.8029 1.82776 18.6912C1.82776 18.4743 1.82776 18.2566 1.82776 18.0389C1.93371 17.3434 2.01731 16.6438 2.14892 15.9524C3.45427 9.05946 8.87762 3.58929 15.8596 2.13226C16.6907 1.95941 17.5399 1.86483 18.3801 1.73438C19.1805 1.73438 19.9809 1.73438 20.7805 1.73438C20.9552 1.7621 21.129 1.80042 21.3045 1.81428Z" fill="#F6F6F2"/>
<circle cx="19" cy="19" r="18" stroke="#F6F6F2" stroke-width="2"/>
</g>
<defs>
<clipPath id="clip0_738_200">
<rect width="38" height="38" fill="white"/>
</clipPath>
</defs>
</svg>
