<svg width="21" height="21" viewBox="0 0 21 21" fill="none" xmlns="http://www.w3.org/2000/svg">
<path d="M19.0919 2.12143C19.8729 2.90248 19.8729 4.16881 19.0919 4.94986L4.94975 19.092C4.1687 19.873 2.90237 19.873 2.12132 19.092L1.41421 18.3849C0.633165 17.6038 0.633165 16.3375 1.41421 15.5565L15.5563 1.41432C16.3374 0.633275 17.6037 0.633276 18.3848 1.41432L19.0919 2.12143Z" fill="#514C89"/>
<path d="M18.6378 19.0916C17.8568 19.8727 16.5904 19.8727 15.8094 19.0916L1.66725 4.94951C0.886197 4.16846 0.886197 2.90213 1.66725 2.12108L2.37435 1.41398C3.1554 0.632928 4.42173 0.632929 5.20278 1.41398L19.3449 15.5561C20.126 16.3372 20.126 17.6035 19.3449 18.3845L18.6378 19.0916Z" fill="#514C89"/>
</svg>
