<svg width="38" height="38" viewBox="0 0 38 38" fill="none" xmlns="http://www.w3.org/2000/svg">
<path d="M19.1024 18.4827C22.7275 18.4827 25.6663 15.4954 25.6663 11.8104C25.6663 8.12545 22.7275 5.13818 19.1024 5.13818C15.4772 5.13818 12.5385 8.12545 12.5385 11.8104C12.5385 15.4954 15.4772 18.4827 19.1024 18.4827Z" fill="#F6F6F2"/>
<path d="M5.83873 31.4131C5.83873 31.4131 5.86002 22.4304 14.8773 19.3276C14.8773 19.3276 19.2468 21.7174 23.1541 19.341C23.1541 19.341 30.871 21.1343 32.3655 31.4131C32.3655 31.4131 27.1806 37.3451 19.0968 37.3445C19.0968 37.3445 12.912 38.3491 5.83873 31.4131Z" fill="#F6F6F2"/>
<circle cx="19" cy="19" r="18" stroke="#F6F6F2" stroke-width="2"/>
</svg>
